<svg width="56" height="56" viewBox="0 0 56 56" xmlns="http://www.w3.org/2000/svg">
<circle cx="28" cy="28" r="27.5" fill="#023535" stroke="#003930"/>
<mask id="mask0_8_28" style="mask-type:luminance" maskUnits="userSpaceOnUse" x="10" y="7" width="36" height="42">
<path d="M10 7H46V48.3434H10V7Z" fill="white"/>
</mask>
<g mask="url(#mask0_8_28)">
<path d="M43.6981 28.1435C41.1135 26.7892 38.9682 26.5936 37.1879 26.1888C37.1144 26.1727 36.9285 25.7382 36.8843 25.6424C35.4398 25.3519 34.7727 25.323 33.6835 25.0759C31.4063 24.5601 31.1552 24.8779 29.1163 24.5641C27.1036 24.2559 25.8105 24.3911 25.6561 24.3299C25.4927 24.2647 27.249 24.1304 29.4483 24.3975C30.6964 24.5488 32.2653 24.2744 33.1093 24.3774C36.1729 24.7508 36.5342 25.1532 36.7141 25.1532C36.7261 25.1532 36.6017 24.7524 36.5185 24.5271C36.083 23.3417 35.0455 23.6379 34.4624 22.7285C32.2188 22.0566 31.8613 21.9817 31.1439 21.5528C29.5255 20.5807 28.1695 20.386 26.3255 20.5791C25.4815 20.6676 23.2709 20.551 24.498 20.5437C27.267 20.5268 28.3577 19.747 30.6889 20.6C31.2474 20.8044 31.527 21.0402 32.6483 21.4289C34.3454 22.0172 34.164 22.0228 34.0823 21.7629C33.6948 20.5268 33.7472 20.0569 32.8537 19.3648C31.461 18.2857 31.2421 17.3948 31.0914 16.8581C30.4295 14.5002 29.4491 14.1928 29.3156 12.8039C29.1785 11.3546 29.9903 9.22368 31.7503 8.81246C32.1724 8.71348 32.9804 8.69417 33.3372 8.77384C35.0343 9.15125 34.706 10.3084 35.0898 10.0944C35.4841 9.8747 34.8102 8.44873 33.8822 7.87335C33.1521 7.4219 31.6506 6.99862 30.2729 7.13703C27.3067 7.43397 25.2244 9.76525 24.7424 12.4136C24.4883 13.809 23.9261 15.956 23.136 17.0971C22.8571 17.4986 21.7313 18.622 21.7515 18.6454C21.7717 18.6687 24.8833 18.4506 25.489 18.1143C25.6989 17.9968 25.7798 17.8881 25.9957 17.4238C26.2701 16.8347 26.3068 16.566 26.1853 15.9584C26.0827 15.4345 26.1853 15.4345 26.1411 14.5759C26.0834 13.4275 26.4312 12.7862 26.6291 12.4104C27.1178 11.4672 27.1223 10.9772 27.4514 10.3849C28.0286 9.34519 28.5046 9.29851 29.2092 8.97019C30.4191 8.40608 28.7002 9.31461 28.4131 9.52545C28.0226 9.81112 27.6051 10.3575 27.3585 10.9072C27.0541 11.5831 27.1336 11.8447 26.9672 12.5882C26.7138 13.7245 26.9672 13.6794 26.4979 14.7384C25.992 15.8876 26.8165 15.9125 26.5594 17.3047C26.2543 18.9504 25.6524 19.0743 23.5588 19.1435C21.3715 19.2175 21.5161 18.9327 21.3692 19.1789C20.7388 20.2283 20.801 21.4168 20.4015 22.3302C20.3505 22.4485 20.3325 22.5072 20.3468 22.5129C20.424 22.5386 20.7673 22.5837 21.0544 22.6054C22.0176 22.6786 21.2957 22.7358 22.5416 22.7358C23.9426 22.7358 23.142 22.8702 24.4815 23.0802C25.351 23.2162 25.8735 23.1784 25.8735 23.2146C25.8735 23.2508 24.5895 23.2741 23.597 23.0995C22.5865 22.9209 22.1578 23.5984 20.2785 23.0802C20.0949 23.0295 19.9345 22.9885 19.9195 22.9885C19.8678 22.9885 19.5724 23.3699 19.376 23.6878C18.8918 24.4732 18.9847 24.7363 18.7704 24.9745C18.1317 25.6891 10.2565 25.4871 10.0683 28.7873C9.99862 29.9984 10.6897 30.8224 11.5308 31.4203C12.3493 32.003 12.8756 32.221 14.5854 32.6894C18.1812 33.6736 18.1782 33.6872 18.1812 33.6905C18.2352 33.7154 18.6174 34.3576 18.7741 34.9998C19.0057 35.9413 18.535 37.1878 17.6302 37.253C17.218 37.2827 16.9331 36.8241 16.8829 36.4008C16.7405 35.1993 18.0545 34.9917 17.8903 35.9606C17.8791 36.0226 17.9526 36.0209 17.9908 35.9606C18.0875 35.8029 18.059 34.9289 17.2157 35.0094C16.0696 35.1188 15.4099 36.6422 15.8574 37.6449C16.1056 38.1993 16.5081 38.3756 17.0118 38.5695C16.7285 38.5574 16.6722 38.5623 16.4789 38.4931C16.2952 38.4271 15.826 38.1663 15.745 38.0859C15.664 38.0054 15.4916 37.7648 15.4916 37.7334C15.4916 37.694 15.4032 37.7068 15.38 37.7495C15.2855 37.9112 15.7547 39.3565 17.4946 39.1457C17.2652 40.5322 15.8454 42.0306 14.4085 40.6312C14.0884 40.3198 13.8313 39.8997 13.8081 39.1175C13.7848 38.3482 14.0742 38.2935 14.1221 37.9635C10.3397 40.7962 12.8066 48.5199 18.9915 46.8525C20.6346 46.4091 21.5499 45.4515 21.5926 45.5022C21.6256 45.5424 21.8302 46.7648 22.669 47.555C23.9875 48.7975 25.9215 48.4539 26.4245 46.6497C26.8285 45.2004 25.4358 44.0915 24.7019 44.7828C24.6209 44.8592 24.591 44.9308 24.6524 44.9011C24.8076 44.827 25.5339 44.8576 25.8668 45.3871C25.9552 45.5263 26.3787 46.4654 25.5879 47.0191C24.0827 48.0733 22.6705 46.8944 22.5978 45.4257C23.0161 46.1604 23.642 46.999 24.4403 47.0714C25.1696 47.1374 23.0903 46.7543 23.0873 44.7908C23.0805 44.6613 23.0955 44.5341 23.1315 44.4102C23.2822 43.8678 23.1442 44.5285 23.2312 44.9043C23.3309 45.3372 23.5588 45.8144 23.9583 45.9488C23.9988 45.9625 23.9973 45.9577 23.9403 45.8868C23.8316 45.7492 23.561 45.2318 23.5468 44.9268C23.531 44.5928 23.6802 43.999 23.9995 43.6537C24.1929 43.4429 24.1854 43.463 24.1172 43.6159C23.8998 44.1068 23.7926 45.0025 24.1247 45.499C24.2979 45.7589 24.498 45.8458 24.522 45.8458C24.6045 45.8458 24.0498 45.4603 24.1584 44.8978C24.2791 44.2782 24.7754 44.1221 24.962 43.735C25.0167 43.6199 25.0145 43.5628 25.0302 43.2828C25.7678 44.3442 26.5422 44.9445 26.5969 44.7908C26.6411 44.6693 25.818 43.9153 25.3436 42.7018C25.2686 42.511 25.1254 42.0539 25.1262 42.0113C25.1299 41.8504 25.453 43.15 26.7378 44.0086C27.5676 44.5631 28.141 44.695 27.7475 44.3901C26.5489 43.455 25.857 42.0346 25.857 41.7417C25.857 41.716 26.0924 42.2157 26.6044 42.6591C27.1366 43.1218 27.9259 43.5097 27.3585 42.9271C26.7123 42.2624 26.4649 41.7385 26.4709 41.7385C26.4987 41.7385 26.8892 42.0588 27.4184 42.1586C27.9042 42.2503 29.3539 42.0845 29.7946 41.4488C29.8321 41.3949 29.7549 41.6991 29.662 41.9638C29.3104 42.9923 28.8801 43.2417 28.9206 43.3528C28.9648 43.4735 30.2969 42.1038 30.6229 41.749C30.3224 42.3919 29.9078 43.1894 29.3261 43.6803C28.7272 44.1841 29.8396 43.7004 30.3418 43.3359C30.6559 43.1073 30.7286 43.0212 30.9678 42.7557C30.2834 44.3587 29.4941 44.6323 29.8426 44.6323C29.976 44.6323 30.2354 44.4746 30.6102 44.1672C31.1289 43.7415 31.2474 43.4727 31.2586 43.5097C31.3006 43.6409 30.8643 44.4062 30.7541 44.584C30.596 44.8415 30.7661 44.8415 31.0914 44.4078C31.6289 43.6932 31.6117 43.5153 31.6476 43.5121C31.6919 43.5089 32.9354 46.051 35.9173 46.8533C40.3542 48.0483 43.7281 44.1309 42.2109 39.7645C41.1735 36.7798 39.5911 37.3286 39.5401 38.1068C39.5191 38.4198 39.6833 37.9161 40.1008 38.0311C40.4704 38.1325 40.8167 38.4947 40.8999 39.1811C41.1158 40.9869 38.8085 42.3267 37.6144 39.787C36.6302 37.6899 38.4944 33.8772 38.6646 33.8772C38.6683 33.8772 41.4786 33.3147 41.8609 33.2092C43.0212 32.8946 45.3315 32.0625 45.728 30.8498C46.0601 29.8503 45.4769 29.0762 43.6981 28.1435ZM27.8135 13.4042C28.0016 12.3033 28.171 12.1118 28.4903 11.2146C28.668 10.7205 28.8404 10.1918 29.2527 9.86745C29.3621 9.78135 29.3854 9.77169 29.3854 9.81032C29.3854 9.93585 29.1417 9.96643 28.9221 11.0641C28.6605 12.3742 27.6845 14.4157 28.7864 17.2604C29.0525 17.9461 29.68 18.4844 29.4303 18.342C29.3824 18.3146 28.8906 17.7883 28.8082 17.6781C28.6755 17.4954 28.4581 17.0416 28.3134 16.6416C28.1883 16.2956 28.1635 15.8256 28.1358 15.4554C27.7453 14.2242 27.68 14.1912 27.8135 13.4042ZM25.2573 21.9689C24.5175 21.9665 23.9606 21.9584 24.7686 21.9053C25.6876 21.8449 26.0759 21.886 26.0737 21.886C26.4979 21.9117 27.7835 22.1113 28.1965 22.2159C29.0818 22.4388 30.123 22.2401 30.6927 22.3503C31.3583 22.4783 32.0599 23.0062 32.0457 23.1309C32.0209 23.3425 31.4205 23.0665 30.4655 22.9522C27.8749 22.6408 28.9349 22.6802 27.1703 22.2079C26.2993 21.9745 26.2873 21.9729 25.2573 21.9689ZM42.2694 40.2103C42.2754 40.2232 42.2754 40.2353 42.2694 40.2473C42.2581 40.2819 42.2551 40.1958 42.2694 40.2103ZM16.0793 32.5156C13.7188 31.9313 12.3134 31.632 11.117 29.9944C10.9101 29.7079 10.7947 29.1092 10.9498 29.4802C11.1103 29.8616 11.512 30.2205 11.8614 30.4708C13.039 31.3125 13.1447 31.3399 15.7068 32.2516C16.4399 32.5124 16.8319 32.699 16.0793 32.5156ZM19.409 43.6747C18.8048 45.3686 16.0981 46.0414 14.9857 44.1124C15.6041 44.6693 16.4309 44.8858 17.1025 44.8238C18.9053 44.6548 19.4952 43.4276 19.4083 43.6722L19.409 43.6747ZM16.8034 43.7221C16.4998 43.7471 16.0261 43.7334 15.8372 43.6948C15.2863 43.5821 14.3837 43.0277 14.2128 42.0974C14.1724 41.8761 14.4422 42.6623 14.9872 43.1041C16.182 44.073 18.071 43.3029 18.9075 42.1843C19.6271 41.2211 19.6474 39.8184 19.6474 40.5894C19.6459 41.798 18.7749 43.5604 16.8019 43.7165L16.8034 43.7221ZM18.49 38.1341C18.0493 38.2701 17.7299 38.2927 17.5058 38.2042C17.3731 38.1502 17.1805 38.0175 17.134 37.9458C17.0748 37.8533 17.1303 37.7929 17.173 37.7366C17.7164 38.2774 18.7299 37.8155 19.2051 37.0405C20.2426 35.349 19.2711 33.581 18.4458 32.2267C17.9601 31.43 17.8139 31.0212 17.8169 30.4716C17.8266 28.9692 18.951 28.2731 18.951 28.3833C18.951 28.4348 18.5192 28.7527 18.2891 29.2589C17.2734 31.4895 19.6376 32.6146 19.9157 35.04C20.0447 36.1674 19.4742 37.8275 18.49 38.1301V38.1341ZM21.0416 34.3375C20.5844 33.6848 19.6459 32.8012 19.6459 32.5445C19.6459 32.5196 20.0304 32.9614 20.385 33.2793C20.8857 33.7283 21.5101 34.5314 21.789 35.0842C21.9044 35.3361 21.9884 35.6001 22.0401 35.8753C22.4269 37.7439 20.5649 38.2058 20.3325 39.1803C20.2328 39.5987 20.2298 38.9542 20.2793 38.8133C20.5192 38.1333 21.5663 37.6787 21.753 36.7042C21.8879 36 21.4247 34.8774 21.0409 34.3334L21.0416 34.3375ZM20.5042 42.2495C20.7673 43.0574 19.0455 41.0239 21.7867 39.1336C22.3999 38.7087 22.7919 38.3305 22.9464 37.7109C22.9936 37.5201 23.0888 36.6808 22.7859 35.8367C22.0401 33.7565 20.756 33.1674 19.9667 31.8951C19.9577 31.8814 19.3206 30.6663 19.7373 31.3141C20.7043 32.8165 21.5206 32.7803 22.63 34.665C23.3137 35.827 23.4328 36.9914 23.2207 37.7889C22.7477 39.5569 19.8738 40.3174 20.5034 42.2479L20.5042 42.2495ZM22.3984 43.7889C22.3789 44.1309 22.3099 43.7366 22.3077 43.566C22.3047 42.5416 24.3338 41.4311 24.0033 39.2921C23.986 39.1811 24.1052 39.4434 24.1847 39.6921C24.8158 41.6588 22.4606 42.7243 22.3984 43.7873V43.7889ZM31.2706 37.8308C31.5644 37.7785 32.6573 37.0719 32.6573 37.0864C32.6573 37.1226 32.4355 37.776 32.3657 37.9474C32.1506 38.4721 31.6746 38.7916 31.2114 39.0773C30.5322 39.4981 29.5713 40.4059 29.114 40.7036C28.8659 40.8646 28.4896 40.8501 28.3074 40.8493C27.2753 40.8428 27.5429 40.8493 25.2821 39.2229C24.055 38.3385 23.9418 38.3224 23.5595 36.231C23.3961 35.3418 23.3346 35.3731 23.4868 35.4657C24.0513 35.8029 24.6854 36.4804 24.7199 36.2865C24.7536 36.0918 23.7192 35.2693 23.1952 34.6891C22.3017 33.7001 22.1863 33.239 22.0273 32.6636C21.8647 32.0738 21.792 31.7302 21.9824 31.0679C22.2132 30.2744 22.3602 29.1068 22.8144 28.78C23.0303 28.6239 23.9613 28.1652 24.1907 28.1009C24.498 28.0156 24.8038 28.1958 24.8713 28.1234C24.9867 27.9995 24.1007 27.6703 23.552 27.1368C23.208 26.8028 23.5932 27.1086 23.9126 27.3058C26.2641 28.7503 27.2573 28.8645 28.6133 28.9684C30.3816 29.1035 30.6799 28.813 30.2729 28.8702C28.9011 29.0609 25.7386 28.0123 25.842 27.9093C25.9125 27.8385 26.806 28.4075 29.9566 28.5435C30.7931 28.5797 30.7968 28.603 30.7968 28.5732C30.7968 28.3962 28.7692 28.2602 27.3075 27.8458C28.0743 27.8908 28.4971 27.7701 29.3007 27.5368C30.9565 27.0547 32.793 27.0789 33.9841 28.4614C34.1235 28.6223 34.158 28.6907 34.3229 29.1333C34.8551 30.5681 34.9346 31.5845 34.182 33.4056C33.7855 34.3632 32.9227 35.3466 32.2338 35.7449C31.8793 35.9509 31.6566 36.2221 32.32 35.8922C33.1551 35.4794 33.8424 34.9008 33.8297 34.9241C33.7757 35.0231 33.3042 35.7232 33.1333 35.9574C32.4475 36.9005 32.1724 37.1636 31.2931 37.727C31.1971 37.7889 31.1844 37.8452 31.2706 37.83V37.8308ZM29.9333 28.4437C29.9513 28.4437 29.9618 28.4469 29.9558 28.4533C29.9423 28.4678 29.8861 28.4461 29.9333 28.4437ZM33.3964 41.9011C33.3417 42.0548 32.8485 40.7117 33.0216 39.6003C33.1618 38.6983 33.2975 38.1929 34.281 36.2664C35.4353 34.0011 36.4218 33.6929 36.5073 30.7283C37.382 34.6416 33.2937 37.4815 33.2937 40.8783C33.293 41.5373 33.4212 41.8302 33.3957 41.9011H33.3964ZM35.4661 29.8576C35.4098 29.6145 35.3911 29.5236 35.5748 29.9928C36.3041 31.8565 35.1752 33.4096 35.0815 33.309C35.0298 33.2551 35.9391 31.8855 35.4653 29.8576H35.4661ZM36.3866 44.9349C35.3169 44.3538 33.8837 42.2736 34.14 40.0655C34.2023 39.5271 34.2052 39.9528 34.1963 40.113C34.143 41.0593 34.8034 43.179 35.9945 44.1366C37.002 44.9469 38.7673 45.1521 39.9284 44.1092C39.2463 45.2833 37.7966 45.701 36.3858 44.9349H36.3866ZM37.6661 33.8088C37.2044 35.3112 36.4091 35.6604 35.8694 37.5459C35.4796 38.9075 35.4203 40.2932 35.4563 40.6545C35.7254 43.3399 39.2013 44.7297 40.5303 42.3477C40.711 42.0234 40.7147 42.0201 40.702 42.0934C40.2387 44.6194 35.7082 44.3225 34.9841 40.8147C34.9249 40.5282 34.9031 39.4354 35.068 38.4601C35.5283 35.7433 36.3251 36.0226 37.2021 33.8836C38.0282 31.8726 37.6249 30.4193 37.8498 31.3624C38.0417 32.1728 37.909 33.0153 37.6646 33.8088H37.6661ZM44.7303 30.8675C44.402 31.5274 41.9066 32.695 40.1076 33.0354C39.0641 33.2334 40.2117 32.8857 43.348 31.6247C44.1778 31.29 44.8135 30.6985 44.7295 30.8675H44.7303ZM44.7745 29.5614C41.7964 27.0338 30.7549 26.6266 26.7243 26.6226C17.6482 26.6129 13.8358 26.4383 11.1148 28.0912C13.6476 25.2377 23.564 25.6883 24.4635 25.7358C31.0345 26.1937 37.5072 26.345 41.7627 27.8723C42.6262 28.1821 45.1111 29.279 45.294 30.1883C45.3247 30.342 45.222 29.9413 44.773 29.5606L44.7745 29.5614Z" fill="url(#paint0_radial_8_28)"/>
</g>
<path d="M26.4015 31.991C26.5237 32.0184 26.7313 32.1246 26.7808 32.1857C26.8543 32.2767 26.924 32.2252 26.8828 32.1117C26.7531 31.7568 27.0484 31.9966 27.1309 31.727C27.1466 31.6755 27.3895 31.7842 27.4667 32.4135C27.5656 33.2198 27.6031 33.2351 27.6174 33.3791C27.6526 33.7493 27.6916 32.6074 27.6758 32.1326C27.6518 31.3802 27.2838 30.6157 26.9322 30.2134C26.421 29.6283 24.5036 28.5798 23.7705 28.8019C23.6902 28.826 22.4834 29.4247 22.4834 29.5462C22.4834 29.7128 22.8065 29.3781 23.5846 29.3781C23.8859 29.3781 23.9721 29.4151 24.5785 29.8038C25.023 30.0894 25.1535 30.1763 25.1774 30.2085C25.2014 30.2399 23.6715 30.293 23.3379 30.1973C23.1873 30.1546 23.1955 30.1546 23.1955 30.1997C23.1955 30.2222 23.2375 30.2737 23.3072 30.3341C23.652 30.6358 22.9174 30.2174 22.9159 30.2174C22.8552 30.2174 22.9392 30.3486 22.9526 30.3687C22.7548 30.2842 22.736 30.2802 22.6221 30.1868C22.4931 30.0806 22.4564 30.1087 22.5269 30.2584C22.6056 30.4234 22.6393 30.421 22.7682 30.6334L22.6715 30.5723C22.4841 30.458 22.5021 30.5481 22.5471 30.602C22.7383 30.833 22.9699 30.8925 22.9699 30.9899C22.9699 31.0422 22.6775 30.9135 22.5958 30.9038C22.4489 30.8869 22.6138 31.0471 22.8859 31.1847C22.9999 31.2426 23.0456 31.2764 23.0658 31.319C23.1026 31.3923 23.1056 31.3818 22.9961 31.4148C22.6371 31.521 23.4039 31.5572 23.7022 31.9387C23.5898 32.065 23.5463 32.1028 23.8019 32.1028C23.9991 32.1028 23.9826 32.1093 24.068 32.1881C23.8199 32.5253 24.3641 32.1383 24.2389 32.3555C24.1138 32.5728 24.4743 32.3644 24.52 32.3644C24.5658 32.3644 24.4833 32.5615 24.6377 32.4513C24.7239 32.3901 24.8304 32.3668 24.8304 32.4086C24.8304 32.4513 24.8649 32.4473 25.0118 32.4022C25.2659 32.3241 25.2307 32.4175 25.529 32.2517C25.6302 32.1946 26.1736 31.9395 26.4015 31.991ZM24.4698 30.553C24.574 30.4894 25.1737 30.4886 25.3911 30.553C26.1579 30.7743 26.4847 31.3706 26.4562 31.3255C26.1512 31.1541 25.9885 30.944 25.4211 30.7332C24.8379 30.5135 24.3964 30.594 24.4698 30.5505V30.553ZM25.6212 31.2579C25.457 31.4816 25.2329 31.5629 25.0792 31.5331C24.9848 31.5138 24.7749 31.3086 24.7247 31.039H24.8851C24.8851 31.3657 25.1797 31.5532 25.3911 31.3038C25.532 31.1332 25.466 31.1187 25.6204 31.2555L25.6212 31.2579ZM24.7014 31.929C24.4563 31.8091 23.8911 31.3979 23.8911 31.2788C23.8911 31.2128 24.4308 31.1356 24.4323 31.1356C24.4556 31.1734 24.4721 31.2136 24.4818 31.2579C24.6969 31.962 25.5875 31.9443 25.7996 31.4301C25.8086 31.4027 25.8213 31.3786 25.8393 31.3577C25.8626 31.3577 26.047 31.5001 26.1467 31.5927C26.2494 31.6924 26.3446 31.7995 26.433 31.9137C25.6767 31.8518 25.2277 32.1857 24.7014 31.9266V31.929Z" fill="url(#paint1_radial_8_28)"/>
<path d="M31.474 32.4075C31.474 32.3648 31.5804 32.3881 31.6681 32.4501C31.7446 32.504 31.7708 32.4984 31.7708 32.4179C31.7708 32.3383 31.7746 32.3519 31.9042 32.4091C32.0782 32.4847 32.1299 32.467 32.0647 32.3544C31.9425 32.1427 32.4792 32.5169 32.2356 32.187C32.4462 31.993 32.8607 32.2288 32.6014 31.9375C32.8832 31.5802 33.3952 31.5714 33.3952 31.474C33.3952 31.4168 33.2363 31.404 33.2175 31.3814C33.2205 31.3589 33.228 31.338 33.24 31.3187C33.261 31.276 33.306 31.2422 33.4199 31.1843C33.7572 31.0121 33.9349 30.8061 33.5376 30.9549C33.2175 31.0756 33.354 30.9171 33.4469 30.8672C33.6598 30.7513 34.0571 30.3136 33.5376 30.629C33.5773 30.5622 33.6201 30.4987 33.6673 30.4383C33.7865 30.2822 33.9192 29.9893 33.6838 30.1824C33.5683 30.2782 33.5511 30.2806 33.3525 30.3643C33.5946 29.9901 33.0601 30.4681 32.914 30.4343C32.8555 30.4206 33.3495 30.0842 32.9687 30.1929C32.6344 30.2886 31.1007 30.2403 31.1284 30.2041C31.1562 30.1671 31.2813 30.085 31.7273 29.7994C32.3338 29.4107 32.4207 29.3737 32.7213 29.3737C32.9844 29.3737 33.4627 29.4662 33.6868 29.5612C33.8712 29.6392 33.8502 29.5249 33.7505 29.4509C33.5616 29.3157 32.6756 28.8401 32.5272 28.7975C31.95 28.6309 28.714 29.566 28.63 32.1298C28.618 32.5032 28.6435 33.4279 28.666 33.4279C28.7327 33.4279 28.8099 32.1322 29.0116 31.8401C29.076 31.7444 29.1637 31.6848 29.1757 31.7243C29.2574 31.9922 29.5535 31.7556 29.4238 32.1089C29.3826 32.2224 29.4523 32.2739 29.5258 32.1829C29.5753 32.1218 29.7829 32.0156 29.9051 31.9882C30.2566 31.9109 30.8698 32.3624 31.0999 32.3624C31.2544 32.3624 31.474 32.4912 31.474 32.4075ZM31.6779 30.5156C31.887 30.5461 31.878 30.563 31.6449 30.5759C30.6629 30.6306 30.1712 31.1408 29.8504 31.3211C30.2881 30.6644 30.9942 30.4134 31.6779 30.5131V30.5156ZM31.423 31.0378H31.5819C31.531 31.301 31.3241 31.511 31.2266 31.5311C30.8908 31.5987 30.6494 31.21 30.6847 31.2567C30.8398 31.1199 30.7739 31.1344 30.9163 31.3042C31.0587 31.474 31.2056 31.4619 31.3518 31.2913C31.4328 31.1939 31.423 31.1851 31.423 31.0378ZM29.8721 31.9109C29.9606 31.7959 30.0558 31.6888 30.1584 31.5899C30.2581 31.4941 30.4433 31.3549 30.4658 31.3549C30.4838 31.3758 30.4973 31.4 30.5055 31.4273C30.7206 31.9488 31.6097 31.952 31.824 31.2567C31.8705 31.1046 31.8525 31.1344 32.0309 31.1609C32.1951 31.1827 32.4132 31.2503 32.4132 31.2784C32.4132 31.3959 31.8525 31.8063 31.6037 31.9287C31.0782 32.1846 30.6247 31.8522 29.8721 31.9109Z" fill="url(#paint2_radial_8_28)"/>
<path d="M26.9132 35.018C26.6793 34.7758 26.7101 34.5183 26.8045 34.1602C26.8233 34.0942 26.7715 34.1087 26.7033 34.1907C26.4994 34.433 26.5054 34.9713 26.7663 35.158C26.9155 35.2659 27.2828 35.3576 27.2828 35.2876C27.2828 35.2288 27.1201 35.183 27.2678 35.1596C27.5556 35.1122 27.5496 35.5572 27.9454 35.6232C28.7445 35.7567 28.7167 35.1065 29.0353 35.1588C29.1852 35.1838 29.0226 35.2272 29.0226 35.2876C29.0226 35.3238 29.7467 35.3536 29.7414 34.6599C29.7384 34.2101 29.4656 34.037 29.4986 34.1602C29.5953 34.5247 29.6155 34.7846 29.3899 35.018C29.1717 34.5674 28.7205 34.7034 28.5106 34.9544C28.1943 35.3326 28.1088 35.3326 27.7925 34.9544C27.5886 34.7106 27.1366 34.5561 26.9132 35.018Z" fill="url(#paint3_radial_8_28)"/>
<path d="M29.8987 37.1425C29.5883 36.9992 29.0112 36.5309 28.7113 36.4794C28.4505 36.4351 28.3755 36.6846 28.1514 36.6846C27.8853 36.6846 27.8613 36.3667 27.4737 36.5156C27.1717 36.6307 26.6949 37.0089 26.4056 37.1425C25.9198 37.3662 25.5615 36.9936 25.5615 37.1521C25.5615 37.4378 26.9235 38.8396 28.3103 38.7431C29.4894 38.661 30.745 37.474 30.745 37.1521C30.7442 36.996 30.3882 37.3678 29.8987 37.1425ZM27.0667 37.5384C27.2249 37.474 27.422 37.4322 27.7526 37.5175C28.3298 37.6663 28.7548 37.3807 29.1491 37.5054C29.1881 37.5151 29.224 37.5304 29.2578 37.5529C29.2705 37.577 28.35 38.698 27.0667 37.5384Z" fill="url(#paint4_radial_8_28)"/>
<defs>
<radialGradient id="paint0_radial_8_28" cx="0" cy="0" r="1" gradientUnits="userSpaceOnUse" gradientTransform="translate(27.9401 27.7015) rotate(90) scale(20.5912 17.8766)">
<stop stop-color="#003930"/>
<stop offset="1" stop-color="#00D2D2"/>
</radialGradient>
<radialGradient id="paint1_radial_8_28" cx="0" cy="0" r="1" gradientUnits="userSpaceOnUse" gradientTransform="translate(25.0814 31.1116) rotate(90) scale(2.34013 2.59802)">
<stop stop-color="#003930"/>
<stop offset="1" stop-color="#00D2D2"/>
</radialGradient>
<radialGradient id="paint2_radial_8_28" cx="0" cy="0" r="1" gradientUnits="userSpaceOnUse" gradientTransform="translate(31.2264 31.1033) rotate(90) scale(2.32452 2.59942)">
<stop stop-color="#003930"/>
<stop offset="1" stop-color="#00D2D2"/>
</radialGradient>
<radialGradient id="paint3_radial_8_28" cx="0" cy="0" r="1" gradientUnits="userSpaceOnUse" gradientTransform="translate(28.1505 34.88) rotate(90) scale(0.761315 1.59095)">
<stop stop-color="#003930"/>
<stop offset="1" stop-color="#00D2D2"/>
</radialGradient>
<radialGradient id="paint4_radial_8_28" cx="0" cy="0" r="1" gradientUnits="userSpaceOnUse" gradientTransform="translate(28.1532 37.611) rotate(90) scale(1.13685 2.59172)">
<stop stop-color="#003930"/>
<stop offset="1" stop-color="#00D2D2"/>
</radialGradient>
</defs>
</svg>
